<svg xmlns="http://www.w3.org/2000/svg" viewBox="0 0 129.07 123.38"><defs><style>.cls-1{fill:#8b4a68;}</style></defs><g id="Layer_2" data-name="Layer 2"><g id="Layer_1-2" data-name="Layer 1"><path class="cls-1" d="M44.06,93.66a10.38,10.38,0,0,0-.53,1.18c-2.24,5.78-21.28,52.36-39.37,12.68-14.6-32,12.85-31.49,27-29.36a21.93,21.93,0,0,0,19.68-7C56.46,64.86,57.56,55.8,34.3,47c-39-14.69-5.65-59.52,17-43.71a12.49,12.49,0,0,1,5.24,9.45C57.39,25.9,61,60.81,74,43.15c15.69-21.32,40-14.54,14.39,19.18a12.57,12.57,0,0,0-1.61,2.8c-2.43,6-7.37,24.78,29.33,21.14,41.78-4.14-29.62,51.7-42.24,9.9A12.7,12.7,0,0,0,65,87.69C58.22,85.81,48.64,85.09,44.06,93.66Z"/></g></g></svg>